<?xml version="1.0" encoding="UTF-8"?>
<svg xmlns="http://www.w3.org/2000/svg" version="1.1" width="239" height="173">
  <path d="M0 0 C5.11475032 5.58833832 7.235252 10.18807825 7.01953125 17.7890625 C6.64820027 21.14282962 5.79589762 23.31510525 3.7734375 26.01171875 C0.5859375 26.88671875 0.5859375 26.88671875 -2.2265625 27.01171875 C-2.44570312 26.46644531 -2.66484375 25.92117187 -2.890625 25.359375 C-8.77443805 11.36738054 -16.71950867 3.38542588 -30.7109375 -2.69921875 C-47.85200927 -8.9842784 -67.12988106 -9.18214486 -83.88305664 -1.62939453 C-93.2470973 2.89699249 -98.37443878 8.43079564 -102.2265625 18.01171875 C-104.27081881 24.38817386 -104.07773551 32.08581151 -102.2265625 38.44921875 C-93.99611571 48.9944787 -81.07886172 51.53498394 -68.6015625 53.94921875 C-67.33554199 54.20372803 -66.06952148 54.4582373 -64.76513672 54.72045898 C-59.77386453 55.7236528 -54.77871688 56.70665835 -49.78320312 57.68847656 C-7.2232116 66.0908236 -7.2232116 66.0908236 5.7734375 82.01171875 C10.54142987 89.3262525 12.14900522 97.19765083 12.0859375 105.82421875 C12.07856567 107.0150708 12.07856567 107.0150708 12.07104492 108.22998047 C11.87928133 117.84569557 9.4517601 125.23453192 3.7734375 133.01171875 C3.14501953 133.90503906 3.14501953 133.90503906 2.50390625 134.81640625 C-7.17485509 147.36811404 -24.21528382 152.61301414 -39.2265625 155.01171875 C-44.45950102 155.42655948 -49.66791845 155.49734707 -54.9140625 155.44921875 C-55.60978363 155.4465097 -56.30550476 155.44380066 -57.02230835 155.44100952 C-72.50563466 155.34986721 -87.50676878 153.81898905 -101.2265625 146.01171875 C-102.40412109 145.35042969 -102.40412109 145.35042969 -103.60546875 144.67578125 C-111.0113414 140.13952761 -117.48464852 134.31746361 -120.2265625 125.88671875 C-121.94230141 118.66724593 -121.73117143 112.60610535 -118.2265625 106.01171875 C-115.85125117 103.04257958 -114.30329538 102.13326023 -110.52734375 101.70703125 C-107.6986768 101.64047438 -105.03027881 101.62344242 -102.2265625 102.01171875 C-101.5665625 102.67171875 -100.9065625 103.33171875 -100.2265625 104.01171875 C-100.6015625 106.13671875 -100.6015625 106.13671875 -101.2265625 108.01171875 C-101.8865625 108.01171875 -102.5465625 108.01171875 -103.2265625 108.01171875 C-105.28449175 112.85390522 -105.77248592 116.97826571 -104.2265625 122.01171875 C-98.41236276 133.86853322 -88.23995929 140.43518664 -76.2265625 145.01171875 C-59.13685802 150.6495594 -41.06912811 150.43932318 -24.41015625 143.19140625 C-21.32476092 141.52452004 -18.61972508 139.5092119 -15.91796875 137.28125 C-14.2265625 136.01171875 -14.2265625 136.01171875 -11.2265625 135.01171875 C-10.12659358 133.21984866 -10.12659358 133.21984866 -9.2265625 131.01171875 C-8.60587891 129.80515625 -8.60587891 129.80515625 -7.97265625 128.57421875 C-7.54082031 127.72859375 -7.10898438 126.88296875 -6.6640625 126.01171875 C-6.22964844 125.16609375 -5.79523438 124.32046875 -5.34765625 123.44921875 C-2.09922765 116.38643323 -2.18440655 107.75976093 -4.2265625 100.32421875 C-6.93620599 93.37996963 -12.10957229 87.84969261 -18.6015625 84.26171875 C-33.30675897 77.94440858 -49.29963794 75.57934734 -64.99389648 73.10498047 C-102.25074014 67.17639027 -102.25074014 67.17639027 -113.01171875 52.984375 C-119.40930254 42.59601547 -119.77397058 30.53783478 -117.63671875 18.76171875 C-114.36399512 8.14421904 -105.82898937 0.1597293 -96.2265625 -4.98828125 C-70.58721438 -17.60961999 -23.00252125 -20.54084793 0 0 Z " fill="#F8F8F8" transform="translate(122.2265625,15.98828125)"></path>
  <path d="M0 0 C24.16371489 -0.852837 45.46946523 4.05551967 64.14453125 20.2421875 C78.99000929 34.57995425 87.63483555 54.83311292 88.203125 75.40625 C88.53480311 101.03573109 83.72472317 123.28887063 65.3125 142.25 C51.38400956 155.94914227 32.77721919 163.3064956 13.30078125 163.17578125 C11.85251953 163.15064453 11.85251953 163.15064453 10.375 163.125 C9.37082031 163.11597656 8.36664063 163.10695312 7.33203125 163.09765625 C4.88775874 163.07437746 2.44401592 163.04168487 0 163 C0 161.35 0 159.7 0 158 C1.20914063 157.91363281 2.41828125 157.82726562 3.6640625 157.73828125 C19.01756577 156.48663696 31.2687827 153.151902 44 144 C45.03125 143.278125 46.0625 142.55625 47.125 141.8125 C61.5499278 129.05519391 69.1540838 108.75542019 71 90 C72.28289981 68.41577345 67.4380537 47.27749761 54 30 C53.42636719 29.43925781 52.85273438 28.87851562 52.26171875 28.30078125 C51 27 51 27 51 25 C50.443125 24.74863281 49.88625 24.49726563 49.3125 24.23828125 C46.6311991 22.80251708 44.40010299 21.0554373 42 19.1875 C29.51493214 10.0714187 15.17122398 7.33080912 0 6 C0 4.02 0 2.04 0 0 Z " fill="#F8F8F8" transform="translate(151,5)"></path>
  <path d="M0 0 C-1.54107422 0.67482422 -1.54107422 0.67482422 -3.11328125 1.36328125 C-12.96104323 5.86810854 -19.87913925 10.79290625 -27 19 C-27.33 18.01 -27.66 17.02 -28 16 C-22.95492904 9.94591484 -17.61713744 5.86791627 -10.625 2.375 C-9.92310547 2.02050781 -9.22121094 1.66601562 -8.49804688 1.30078125 C-3.39895895 -1.13298632 -3.39895895 -1.13298632 0 0 Z " fill="#E3E3E3" transform="translate(38,8)"></path>
</svg>
